<?xml version="1.0" encoding="utf-8"?>
<!-- Generator: Adobe Illustrator 24.3.0, SVG Export Plug-In . SVG Version: 6.00 Build 0)  -->
<svg version="1.1" id="Layer_1" xmlns="http://www.w3.org/2000/svg" xmlns:xlink="http://www.w3.org/1999/xlink" x="0px" y="0px"
	 viewBox="0 0 18.38 18.38" style="enable-background:new 0 0 18.38 18.38;" xml:space="preserve">
<style type="text/css">
	.st0{fill:none;stroke:#30302F;stroke-miterlimit:10;}
	.st1{fill:#FFFFFF;}
</style>
<g>
	<path class="st1" d="M13.3,18.38h-0.95V12c0-0.25,0.12-0.38,0.2-0.44c0.12-0.09,0.25-0.11,0.36-0.09h2.07v-1.9h-2.63V7.57
		c0-0.01-0.02-0.36,0.11-0.67c0.2-0.62,0.88-0.75,1.2-0.72l1.31,0v-1.9h-1.73c-0.87,0-1.56,0.25-2.03,0.75
		c-0.84,0.89-0.77,2.29-0.77,2.3l0,2.24H8.68l0,1.9l1.77,0v6.91H5.08C2.28,18.38,0,16.1,0,13.3V5.08C0,2.28,2.28,0,5.08,0h8.22
		c2.8,0,5.08,2.28,5.08,5.08v8.22C18.38,16.1,16.1,18.38,13.3,18.38z M13.1,17.63h0.2c2.39,0,4.33-1.94,4.33-4.33V5.08
		c0-2.39-1.94-4.33-4.33-4.33H5.08c-2.39,0-4.33,1.94-4.33,4.33v8.22c0,2.39,1.94,4.33,4.33,4.33h4.63v-5.41H8.45
		c0,0-0.19,0.02-0.35-0.11l-0.13-0.11l-0.03-0.26V9.17l0.11-0.19c0.09-0.1,0.22-0.16,0.37-0.16h1.28V7.36c0-0.05-0.09-1.7,0.96-2.83
		c0.62-0.66,1.48-0.99,2.58-0.99h2.48v3.4h-2.09c-0.06,0-0.39-0.02-0.47,0.24C13.1,7.32,13.1,7.5,13.1,7.54l0,1.29h2.63v3.4H13.1
		V17.63z M8.43,11.47c-0.01,0-0.02,0-0.04,0h0.07C8.45,11.47,8.44,11.47,8.43,11.47z M8.68,9.27v0.06C8.69,9.31,8.69,9.29,8.68,9.27
		z"/>
</g>
</svg>
