<?xml version="1.0" encoding="utf-8"?>
<!-- Generator: Adobe Illustrator 24.3.0, SVG Export Plug-In . SVG Version: 6.00 Build 0)  -->
<svg version="1.1" id="Layer_1" xmlns="http://www.w3.org/2000/svg" xmlns:xlink="http://www.w3.org/1999/xlink" x="0px" y="0px"
	 viewBox="0 0 18.26 18.26" style="enable-background:new 0 0 18.26 18.26;" xml:space="preserve">
<style type="text/css">
	.st0{fill:none;stroke:#30302F;stroke-miterlimit:10;}
	.st1{fill:#FFFFFF;}
</style>
<g>
	<path class="st1" d="M12.55,18.26H5.7c-3.14,0-5.7-2.56-5.7-5.7V5.7C0,2.56,2.56,0,5.7,0h6.85c3.14,0,5.7,2.56,5.7,5.7v6.85
		C18.26,15.7,15.7,18.26,12.55,18.26z M5.7,0.61c-2.81,0-5.1,2.29-5.1,5.1v6.85c0,2.81,2.29,5.1,5.1,5.1h6.85
		c2.81,0,5.1-2.29,5.1-5.1V5.7c0-2.81-2.29-5.1-5.1-5.1H5.7z"/>
	<path class="st1" d="M9.13,13.37c-2.34,0-4.25-1.9-4.25-4.25c0-2.34,1.9-4.25,4.25-4.25c2.34,0,4.25,1.9,4.25,4.25
		C13.37,11.47,11.47,13.37,9.13,13.37z M9.13,5.49c-2.01,0-3.64,1.63-3.64,3.64s1.63,3.64,3.64,3.64s3.64-1.63,3.64-3.64
		S11.13,5.49,9.13,5.49z"/>
	<path class="st1" d="M14.17,5.49c-0.78,0-1.41-0.63-1.41-1.41s0.63-1.41,1.41-1.41s1.41,0.63,1.41,1.41S14.95,5.49,14.17,5.49z
		 M14.17,3.29c-0.44,0-0.8,0.36-0.8,0.8s0.36,0.8,0.8,0.8s0.8-0.36,0.8-0.8S14.61,3.29,14.17,3.29z"/>
</g>
</svg>
